<svg id="レイヤー_1" data-name="レイヤー 1" xmlns="http://www.w3.org/2000/svg" viewBox="0 0 230 46">
  <defs>
    <style>
      .cls-1 {
        fill: #ec6c6b;
      }

      .cls-2 {
        fill: #fff;
      }

      .cls-3 {
        fill: #fcfcfc;
      }
    </style>
  </defs>
  <path class="cls-1" d="M23,45A22,22,0,0,1,23,1H207a22,22,0,0,1,0,44Z"/>
  <path class="cls-1" d="M207,2a21,21,0,0,1,0,42H23A21,21,0,0,1,23,2H207m0-2H23A23,23,0,0,0,0,23H0A23,23,0,0,0,23,46H207a23,23,0,0,0,23-23h0A23,23,0,0,0,207,0Z"/>
  <g>
    <path class="cls-2" d="M36,34.79H56A13.56,13.56,0,0,0,36.83,34C36.54,34.22,36.25,34.5,36,34.79Z"/>
    <path class="cls-2" d="M49.78,23.79a1.52,1.52,0,0,0-1.4-1.53A1.31,1.31,0,0,0,47,23.5v.08a1.6,1.6,0,0,0,1.59,1.54A1.27,1.27,0,0,0,49.78,23.79Z"/>
    <path class="cls-2" d="M44.38,20.29a1.26,1.26,0,0,0-1.18,1.3A1.29,1.29,0,0,0,44.43,23h0a1.13,1.13,0,0,0,1.09-1.15h0a1.34,1.34,0,0,0-1.15-1.49Z"/>
    <path class="cls-2" d="M42.63,16.34s-.12-5.31-.12-5.55H40.63c0,.31-.11,5.44-.11,5.44v.16l-3.05.21v1.89h.22l2.83,0V20l-.05.06a45.45,45.45,0,0,0-3.88,4.45l1.25,1.35L40.55,23v.42s.11,5.59.12,5.91h1.88c0-1.49.14-5.79.14-9.35V18.32L45,18.13V16.3h-.44Z"/>
    <path class="cls-2" d="M53,10.79H51.08v5.34h-.47l-4.23.3V18.2l4.51-.08h.18v2.22l.06,6.51V27L48.73,27c0,.25-.15,1.54-.18,1.8a36.27,36.27,0,0,0,4.55.4c.06-1.4.14-6,.14-9.4V18l2.27-.17V16.12h-2.3S53,11.12,53,10.79Z"/>
  </g>
  <g>
    <path class="cls-3" d="M77,18.75a2.93,2.93,0,0,0-.26.68,13.34,13.34,0,0,1-8.53,9.73,5.58,5.58,0,0,0-1.32-1.78,10.89,10.89,0,0,0,7.83-8.07H67.58a10.28,10.28,0,0,0-1.89.09V17.45a10.38,10.38,0,0,0,1.92.1h6.88a9.52,9.52,0,0,0,1.08,0A8.51,8.51,0,0,0,74.64,16l1.1-.4A9.18,9.18,0,0,1,77.07,18l-.6.24Zm.88-1.06a10.18,10.18,0,0,0-1.29-2.33l1.08-.4A8,8,0,0,1,79,17.24Z"/>
    <path class="cls-3" d="M82.67,27.21v1.05H80.73A9.19,9.19,0,0,0,80.79,27V18.38a9.06,9.06,0,0,0-.06-1.26c.36,0,.68,0,1.28,0h8.52c.64,0,.91,0,1.26,0,0,.39-.05.69-.05,1.24v8.58a11.41,11.41,0,0,0,.06,1.31H89.87v-1Zm7.2-8.35h-7.2V25.5h7.2Z"/>
    <path class="cls-3" d="M106.55,18.77a2.87,2.87,0,0,0-.38.9,14.76,14.76,0,0,1-3,5.67,15.11,15.11,0,0,1-5.34,3.79,5,5,0,0,0-1.28-1.57,12.08,12.08,0,0,0,7.67-8.09l-4.52.06a14.92,14.92,0,0,1-3.51,3.86,3.92,3.92,0,0,0-1.45-1.29,11.76,11.76,0,0,0,3.88-4.35,5.91,5.91,0,0,0,.77-2l2.05.42a2,2,0,0,0-.25.45c-.12.27-.26.57-.41.87l-.1.21-.12.23a6.83,6.83,0,0,1,.72,0l3.28,0a6,6,0,0,0,.78,0A8.89,8.89,0,0,0,104.24,16l1.11-.38a9.52,9.52,0,0,1,1.33,2.37l-.64.24Zm1-1.08a10.58,10.58,0,0,0-1.29-2.33l1.08-.37a8.46,8.46,0,0,1,1.32,2.28Z"/>
    <path class="cls-3" d="M111.68,17a8.41,8.41,0,0,0-.09-1.45h1.75a9.85,9.85,0,0,0-.09,1.47v1.27h.5a9.15,9.15,0,0,0,1.3-.09v1.64a10.83,10.83,0,0,0-1.27-.08h-.5a11.73,11.73,0,0,0,2.16,3,5.56,5.56,0,0,0-.81,1.51,11.15,11.15,0,0,1-1.45-2.44,18.37,18.37,0,0,1,.07,2.19v3.69a11.81,11.81,0,0,0,.09,1.63H111.6a11.75,11.75,0,0,0,.09-1.62v-3a21.41,21.41,0,0,1,.09-2.24,14,14,0,0,1-2,3.78,6,6,0,0,0-.84-1.57,15.72,15.72,0,0,0,2.64-5h-.78a12.35,12.35,0,0,0-1.44.08V18.15a10.53,10.53,0,0,0,1.45.09h.89Zm9.57,10.46c0,.84-.21,1.26-.69,1.45a4.55,4.55,0,0,1-1.67.18c-.39,0-.52,0-1.56-.06a4.66,4.66,0,0,0-.45-1.66l.45.06a14.26,14.26,0,0,0,1.67.12c.49,0,.61-.08.61-.42V19.83H117a13.33,13.33,0,0,0-1.69.09V18.26a12.16,12.16,0,0,0,1.67.09h2.59v-1a12.15,12.15,0,0,0-.1-1.75h1.83a14.39,14.39,0,0,0-.09,1.77v1h.1a9.25,9.25,0,0,0,1.46-.09v1.63c-.43,0-.86-.06-1.41-.06h-.15Zm-4-2.07a13.23,13.23,0,0,0-1.88-3.8l1.42-.69a14.19,14.19,0,0,1,1.88,3.6Z"/>
    <path class="cls-3" d="M124.57,17.61l.56,0c.28,0,.28,0,2.48-.15,1.1-.06,3.66-.2,7.66-.39a8.17,8.17,0,0,0,1.55-.12l.1,1.9h-.31a6.71,6.71,0,0,0-3,.81c-1.91,1-3,2.49-3,4a2.52,2.52,0,0,0,2,2.45,9.42,9.42,0,0,0,2.24.39,2.48,2.48,0,0,0,.3,0l-.27,2-.51-.09a9,9,0,0,1-3.51-1,4,4,0,0,1-2.14-3.61,5.2,5.2,0,0,1,1.42-3.53,6.66,6.66,0,0,1,2.08-1.51c-1.21.18-2.14.27-5.05.48a17.19,17.19,0,0,0-2.49.3Zm10.33,2.88a9.85,9.85,0,0,1,1.57,2.21l-1.05.55A10,10,0,0,0,133.85,21Zm2.32,1.82a10.88,10.88,0,0,0-1.53-2.18l1-.52a8.74,8.74,0,0,1,1.56,2.11Z"/>
    <path class="cls-3" d="M151.74,18a2.28,2.28,0,0,0-.25.68,14.21,14.21,0,0,1-3.07,6.28,14.69,14.69,0,0,1-5.59,3.83A5.33,5.33,0,0,0,141.51,27a12.24,12.24,0,0,0,3.29-1.53,10.35,10.35,0,0,0,4.54-6.54h-7.13a12.51,12.51,0,0,0-1.89.09V17a10.37,10.37,0,0,0,1.92.11h6.88a5.42,5.42,0,0,0,1.6-.15Z"/>
    <path class="cls-3" d="M155.27,22a12.32,12.32,0,0,0-1.35.06V20.43a6.07,6.07,0,0,0,1.35.09h4.36v-.91a8.81,8.81,0,0,0-.07-1.19h1.75a7.87,7.87,0,0,0,0,1.13v1h1.31a6.82,6.82,0,0,0,1.35-.09v1.62a10.12,10.12,0,0,0-1.37-.06h-1.29l.08,5.71a6.89,6.89,0,0,0,.09,1.28h-1.83a10.26,10.26,0,0,0,.06-1.23l0-3.75c0-.17,0-.75,0-.93a6.19,6.19,0,0,1-.51.84,14.48,14.48,0,0,1-4.86,4,4.65,4.65,0,0,0-1.11-1.41,13,13,0,0,0,3.22-2A10.74,10.74,0,0,0,158.61,22Z"/>
    <path class="cls-3" d="M168.77,27.21v1.05h-1.94a9.19,9.19,0,0,0,.06-1.29V18.38a9.06,9.06,0,0,0-.06-1.26c.36,0,.68,0,1.28,0h8.52c.64,0,.91,0,1.26,0,0,.39,0,.69,0,1.24v8.58a11.41,11.41,0,0,0,.06,1.31H176v-1Zm7.2-8.35h-7.2V25.5H176Z"/>
    <path class="cls-3" d="M180.92,21.29a14.89,14.89,0,0,0,2.43.1h8a14.89,14.89,0,0,0,2.43-.1v2.08a17.54,17.54,0,0,0-2.44-.07h-8a17.54,17.54,0,0,0-2.44.07Z"/>
  </g>
</svg>
